<?xml version="1.0" encoding="UTF-8"?>
<svg width="210px" height="90px" viewBox="0 0 210 90" version="1.1" xmlns="http://www.w3.org/2000/svg" xmlns:xlink="http://www.w3.org/1999/xlink">
    <title>Brand/1- Logo/2- aPayUcompany/1- Colored</title>
    <g id="05---Landings" stroke="none" stroke-width="1" fill="none" fill-rule="evenodd">
        <g id="004.0.0-Brand-Kit" transform="translate(-215.000000, -1207.000000)">
            <g id="Group-2" transform="translate(135.000000, 1044.000000)">
                <g id="Group-4" transform="translate(0.000000, 83.000000)">
                    <g id="Brand/1--Logo/2--aPayUcompany/1--Colored" transform="translate(80.000000, 80.000000)">
                        <g id="Group-21" fill="#1E64FF">
                            <path d="M49.7648428,19.5687818 C51.1018406,16.9957612 54.2728353,15.9921038 56.8501435,17.3317721 C59.4283267,18.6740654 60.4288875,21.8482304 59.0844523,24.4260636 L59.0844523,24.4260636 L35.1186797,70.6726193 C34.2165562,72.4016751 32.4875591,73.4175829 30.6728121,73.4937104 C29.7807511,73.5374618 28.8690026,73.3541434 28.022879,72.9065664 C25.4451333,71.5686483 24.4454475,68.3944833 25.7859453,65.8162125 L25.7859453,65.8162125 L32.562809,52.7257899 L17.8851459,24.4260636 C16.5446482,21.8482304 17.551334,18.6740654 20.1260172,17.3317721 C22.7002629,15.9921038 25.8773826,16.9957612 27.2121929,19.5687818 L27.2121929,19.5687818 L38.4878616,41.3071087 Z M146.22302,16.0378241 C151.90876,16.0378241 157.253689,18.2516455 161.275619,22.2741504 C163.320491,24.3282792 163.320491,27.6564492 161.275619,29.7110155 C159.218935,31.7590192 155.890003,31.7590192 153.839007,29.7110155 C151.801135,27.6721997 149.10439,26.5556637 146.22302,26.5556637 C143.349524,26.5556637 140.648404,27.6721997 138.61622,29.7110155 C136.581848,31.7367059 135.464037,34.4427308 135.464037,37.3198237 C135.464037,40.1942915 136.581848,42.8972538 138.61622,44.932132 C140.648404,46.9586974 143.349524,48.0914215 146.22302,48.0914215 C149.10439,48.0914215 151.801135,46.9586974 153.839007,44.932132 C155.890003,42.8758156 159.218935,42.8758156 161.275619,44.932132 C163.320491,46.9849483 163.320491,50.3153058 161.275619,52.3598093 C157.253689,56.3831892 151.90876,58.6005108 146.22302,58.6005108 C140.544279,58.6005108 135.201975,56.3831892 131.183107,52.3598093 C127.163801,48.3495548 124.948743,43.0013821 124.948743,37.3198237 C124.948743,31.6321401 127.163801,26.2966553 131.183107,22.2741504 C135.201975,18.2516455 140.544279,16.0378241 146.22302,16.0378241 Z M188.722005,16.0376928 C200.45486,16.0376928 209.999782,25.5838135 209.999782,37.3196924 C209.999782,49.0533838 200.45486,58.6008171 188.722005,58.6008171 C176.993962,58.6008171 167.450353,49.0533838 167.450353,37.3196924 C167.450353,25.5838135 176.993962,16.0376928 188.722005,16.0376928 Z M5.80539732,16.740253 C8.70820499,16.740253 11.0615136,19.094079 11.0615136,21.9895475 L11.0615136,21.9895475 L11.0615136,52.7354152 C11.0615136,55.6409465 8.70820499,57.9886473 5.80539732,57.9886473 C2.90258966,57.9886473 0.548406085,55.6409465 0.548406085,52.7354152 L0.548406085,52.7354152 L0.548406085,21.9895475 C0.548406085,19.094079 2.90258966,16.740253 5.80539732,16.740253 Z M93.1818796,16.7379787 C93.2484586,16.7380195 93.3127443,16.7380618 93.3746615,16.7381057 L94.1163619,16.738885 C94.1527105,16.7389453 94.1863138,16.7390074 94.2170967,16.7390712 L94.4462865,16.7399242 L94.4462865,16.7399242 L94.4578871,16.7401655 C95.7139475,16.6972891 96.9822579,17.098052 98.0178186,17.9704552 C100.238565,19.8268277 100.529064,23.1479974 98.6670676,25.3692566 L98.6670676,25.3692566 L80.1127235,47.4759704 L94.6324493,47.4759704 C97.5374444,47.4759704 99.894253,49.8359216 99.894253,52.7353277 C99.894253,55.6412965 97.5374444,57.9885598 94.6324493,57.9885598 L94.6324493,57.9885598 L68.8427423,57.9885598 C67.6501192,57.9885598 66.4478713,57.5917345 65.4634979,56.7587076 C63.2427516,54.897085 62.9496271,51.5846655 64.8173115,49.3555311 L64.8173115,49.3555311 L83.3685931,27.256255 L71.2406758,27.256255 C68.3343681,27.256255 65.9845595,24.8963038 65.9845595,21.9898975 C65.9845595,19.0939915 68.3343681,16.7401655 71.2406758,16.7401655 L71.2406758,16.7401655 L71.6860164,16.7400348 C71.7271996,16.7400229 71.7710607,16.7400103 71.8175246,16.739997 L75.4110103,16.7390439 C75.5186078,16.7390175 75.6276781,16.7389908 75.738146,16.738964 L79.7906416,16.738071 C79.9227416,16.7380451 80.0554105,16.7380193 80.1885731,16.7379939 Z M112.8056,16.740253 C115.714095,16.740253 118.061716,19.094079 118.061716,21.9895475 L118.061716,21.9895475 L118.061716,52.7354152 C118.061716,55.6409465 115.714095,57.9886473 112.8056,57.9886473 C109.905418,57.9886473 107.555609,55.6409465 107.555609,52.7354152 L107.555609,52.7354152 L107.555609,21.9895475 C107.555609,19.094079 109.905418,16.740253 112.8056,16.740253 Z M188.722005,26.5555324 C182.789077,26.5555324 177.965648,31.3830633 177.965648,37.3196924 C177.965648,43.2545716 182.789077,48.0912902 188.722005,48.0912902 C194.65887,48.0912902 199.4893,43.2545716 199.4893,37.3196924 C199.4893,31.3830633 194.65887,26.5555324 188.722005,26.5555324 Z M5.80539732,-4.26048086e-15 C9.01051698,-4.26048086e-15 11.6132001,2.60145899 11.6132001,5.81062511 C11.6132001,9.01322851 9.01051698,11.6195002 5.80539732,11.6195002 C2.60027767,11.6195002 -0.000218000623,9.01322851 -0.000218000623,5.81062511 C-0.000218000623,2.60145899 2.60027767,-4.26048086e-15 5.80539732,-4.26048086e-15 Z M112.8056,-4.26048086e-15 C116.016845,-4.26048086e-15 118.616903,2.60145899 118.616903,5.81062511 C118.616903,9.01322851 116.016845,11.6195002 112.8056,11.6195002 C109.596981,11.6195002 106.996922,9.01322851 106.996922,5.81062511 C106.996922,2.60145899 109.596981,-4.26048086e-15 112.8056,-4.26048086e-15 Z" id="Combined-Shape"></path>
                        </g>
                        <g id="Brand/1--Logo/aPayUcompany_Subtext" transform="translate(56.962500, 73.500000)" fill="#212529" fill-rule="nonzero">
                            <path d="M47.540325,3.25815 C48.1712,3.25815 48.648075,3.7464 48.648075,4.31515 C48.648075,4.5374 48.56845,4.722025 48.502825,4.867275 L48.502825,4.867275 L43.819825,15.398775 C43.57045,15.976275 43.135575,16.22565 42.67795,16.22565 C42.06895,16.22565 41.6367,15.736525 41.6367,15.16865 C41.6367,14.94115 41.709325,14.7644 41.75745,14.62265 L41.75745,14.62265 L42.787325,12.275025 L39.4282,4.867275 C39.374825,4.722025 39.301325,4.5374 39.301325,4.31515 C39.301325,3.7464 39.76945,3.25815 40.3872,3.25815 C40.837825,3.25815 41.26745,3.5084 41.52645,4.088525 L41.52645,4.088525 L43.9432,9.685025 L46.42295,4.088525 C46.668825,3.5084 47.088825,3.25815 47.540325,3.25815 Z M145.730813,3.25815 C146.124562,3.25815 146.430813,3.582775 146.430813,3.9459 C146.430813,4.088525 146.396688,4.179525 146.362563,4.28365 L146.362563,4.28365 L141.4084,15.7234 C141.264025,16.06465 140.992775,16.22565 140.702275,16.22565 C140.30415,16.22565 140.030275,15.901025 140.030275,15.544025 C140.030275,15.398775 140.0679,15.3104 140.109025,15.20015 L140.109025,15.20015 L141.3209,12.37915 L137.776275,4.28365 C137.73865,4.179525 137.701025,4.088525 137.701025,3.9459 C137.701025,3.582775 138.014275,3.25815 138.40715,3.25815 C138.6959,3.25815 138.9724,3.416525 139.11415,3.763025 L139.11415,3.763025 L142.062025,10.6659 L145.017687,3.763025 C145.165562,3.416525 145.437688,3.25815 145.730813,3.25815 Z M111.141713,3.20145 C113.148962,3.20145 115.590212,4.794825 115.590212,8.00695 C115.590212,11.2532 113.148962,12.83695 111.141713,12.83695 C109.552712,12.83695 108.327712,11.884075 107.942712,10.807825 L107.942712,10.807825 L107.942712,15.471575 C107.942712,15.88195 107.587462,16.225825 107.189337,16.225825 C106.775462,16.225825 106.435087,15.88195 106.435087,15.471575 L106.435087,15.471575 L106.435087,4.0152 C106.435087,3.59695 106.753588,3.258325 107.189337,3.258325 C107.587462,3.258325 107.926963,3.59695 107.926963,4.0152 L107.926963,4.0152 L107.926963,5.1037 C108.488712,3.890075 109.766212,3.20145 111.141713,3.20145 Z M59.718575,-1.80300219e-13 C60.381825,-1.80300219e-13 60.892825,0.538125 60.892825,1.18475 L60.892825,1.18475 L60.892825,8.173375 C60.892825,11.095875 58.65195,12.837125 55.8502,12.837125 C53.0362,12.837125 50.811075,11.095875 50.811075,8.173375 L50.811075,8.173375 L50.811075,1.18475 C50.811075,0.538125 51.332575,-1.80300219e-13 52.001075,-1.80300219e-13 C52.673075,-1.80300219e-13 53.247075,0.538125 53.247075,1.18475 L53.247075,1.18475 L53.247075,8.13575 C53.247075,10.031875 54.465075,10.782625 55.8502,10.782625 C57.2642,10.782625 58.4507,10.031875 58.4507,8.13575 L58.4507,8.13575 L58.4507,1.18475 C58.4507,0.538125 59.027325,-1.80300219e-13 59.718575,-1.80300219e-13 Z M32.5884125,3.2018875 C33.8755375,3.2018875 34.9036625,3.8896375 35.2615375,4.7410125 L35.2615375,4.7410125 L35.2615375,4.4251375 C35.2615375,3.7977625 35.8101625,3.2578875 36.4559125,3.2578875 C37.0894125,3.2578875 37.6642875,3.7977625 37.6642875,4.4251375 L37.6642875,4.4251375 L37.6642875,11.6386375 C37.6642875,12.2913875 37.0894125,12.8120125 36.4559125,12.8120125 C35.8101625,12.8120125 35.2615375,12.2913875 35.2615375,11.6386375 L35.2615375,11.6386375 L35.2615375,11.2930125 C35.1241625,11.8530125 34.1625375,12.8373875 32.5884125,12.8373875 C30.6039125,12.8373875 28.2186625,11.2930125 28.2186625,8.0065125 C28.2186625,4.7952625 30.6161625,3.2018875 32.5884125,3.2018875 Z M82.3967375,3.20145 C84.4976125,3.20145 87.1103625,4.810575 87.1103625,8.0262 C87.1103625,11.2532 84.4976125,12.83695 82.3967375,12.83695 C80.3203625,12.83695 77.6953625,11.2532 77.6953625,8.0262 C77.6953625,4.810575 80.3203625,3.20145 82.3967375,3.20145 Z M121.3359,3.20145 C122.7044,3.20145 123.989775,3.890075 124.5489,5.1037 L124.5489,5.1037 L124.5489,4.0152 C124.5489,3.59695 124.898025,3.258325 125.290025,3.258325 C125.7249,3.258325 126.0434,3.59695 126.0434,4.0152 L126.0434,4.0152 L126.0434,12.0547 C126.0434,12.449325 125.70915,12.811575 125.290025,12.811575 C124.898025,12.811575 124.5489,12.449325 124.5489,12.0547 L124.5489,12.0547 L124.5489,10.755325 C124.1884,11.85345 122.9424,12.83695 121.3359,12.83695 C119.333025,12.83695 116.8944,11.2532 116.8944,8.00695 C116.8944,4.794825 119.333025,3.20145 121.3359,3.20145 Z M4.445,3.20145 C5.814375,3.20145 7.095375,3.890075 7.657125,5.1037 L7.657125,5.1037 L7.657125,4.0152 C7.657125,3.59695 8.001,3.258325 8.39825,3.258325 C8.833125,3.258325 9.156,3.59695 9.156,4.0152 L9.156,4.0152 L9.156,12.0547 C9.156,12.449325 8.80775,12.811575 8.39825,12.811575 C8.001,12.811575 7.657125,12.449325 7.657125,12.0547 L7.657125,12.0547 L7.657125,10.755325 C7.294875,11.85345 6.048,12.83695 4.445,12.83695 C2.4325,12.83695 2.48689958e-14,11.2532 2.48689958e-14,8.00695 C2.48689958e-14,4.794825 2.4325,3.20145 4.445,3.20145 Z M22.6849,0.059325 C25.4989,0.059325 27.305775,1.8837 27.305775,4.16045 C27.305775,6.47745 25.4989,8.221325 22.6849,8.221325 L22.6849,8.221325 L20.479025,8.221325 L20.479025,11.605825 C20.479025,12.2752 19.93915,12.83695 19.26715,12.83695 C18.5829,12.83695 18.039525,12.2752 18.039525,11.605825 L18.039525,11.605825 L18.039525,1.3937 C18.039525,0.617575 18.59865,0.059325 19.378275,0.059325 L19.378275,0.059325 Z M72.8931,3.2015375 C74.199475,3.2015375 75.3326,3.6679125 76.127975,4.6330375 C76.27235,4.8106625 76.47185,5.0101625 76.47185,5.2962875 C76.47185,5.6602875 76.18135,5.9157875 75.837475,5.9157875 C75.569725,5.9157875 75.35185,5.7512875 75.203975,5.5675375 C74.663225,4.8491625 73.7646,4.5236625 72.9666,4.5236625 C71.3601,4.5236625 69.68185,5.6777875 69.68185,8.0061625 C69.68185,10.3222875 71.3601,11.4772875 72.9666,11.4772875 C73.7646,11.4772875 74.663225,11.1517875 75.203975,10.4325375 C75.35185,10.2426625 75.569725,10.0851625 75.837475,10.0851625 C76.18135,10.0851625 76.47185,10.3415375 76.47185,10.7046625 C76.47185,10.9916625 76.27235,11.1832875 76.127975,11.3539125 C75.3326,12.3076625 74.199475,12.7994125 72.8931,12.7994125 C70.760725,12.7994125 68.193475,11.2217875 68.193475,8.0061625 C68.193475,4.7791625 70.760725,3.2015375 72.8931,3.2015375 Z M100.686337,3.214225 C102.398712,3.214225 104.204712,4.24585 104.204712,7.24535 L104.204712,7.24535 L104.204712,12.0421 C104.204712,12.429725 103.878337,12.798975 103.469712,12.798975 C103.049712,12.798975 102.706712,12.429725 102.706712,12.0421 L102.706712,12.0421 L102.706712,7.24535 C102.706712,5.2801 101.535087,4.537225 100.269837,4.537225 C98.4244625,4.537225 97.4873375,6.0921 97.3193375,7.123725 L97.3193375,7.123725 L97.3193375,12.0421 C97.3193375,12.429725 96.9798375,12.798975 96.5624625,12.798975 C96.1442125,12.798975 95.8204625,12.429725 95.8204625,12.0421 L95.8204625,12.0421 L95.8204625,7.24535 C95.8204625,5.2801 94.6287125,4.537225 93.3634625,4.537225 C91.5242125,4.537225 90.5844625,6.0921 90.4234625,7.123725 L90.4234625,7.123725 L90.4234625,12.0421 C90.4234625,12.429725 90.0822125,12.798975 89.6788375,12.798975 C89.2649625,12.798975 88.9219625,12.429725 88.9219625,12.0421 L88.9219625,12.0421 L88.9219625,4.01485 C88.9219625,3.5966 89.2649625,3.257975 89.6788375,3.257975 C90.0822125,3.257975 90.4234625,3.5966 90.4234625,4.01485 L90.4234625,4.01485 L90.4234625,5.4796 C90.5302125,4.8671 91.6510875,3.214225 93.7992125,3.214225 C95.1335875,3.214225 96.5405875,3.8521 97.0900875,5.5671 C97.5914625,4.46985 98.7902125,3.214225 100.686337,3.214225 Z M133.095462,3.214225 C134.795588,3.214225 136.619087,4.24585 136.619087,7.24535 L136.619087,7.24535 L136.619087,12.0421 C136.619087,12.429725 136.276088,12.798975 135.864838,12.798975 C135.445712,12.798975 135.123713,12.429725 135.123713,12.0421 L135.123713,12.0421 L135.123713,7.24535 C135.123713,5.2801 133.924087,4.537225 132.663213,4.537225 C130.823087,4.537225 129.879837,6.0921 129.716212,7.123725 L129.716212,7.123725 L129.716212,12.0421 C129.716212,12.429725 129.374962,12.798975 128.977713,12.798975 C128.563837,12.798975 128.217338,12.429725 128.217338,12.0421 L128.217338,12.0421 L128.217338,4.01485 C128.217338,3.5966 128.563837,3.257975 128.977713,3.257975 C129.374962,3.257975 129.716212,3.5966 129.716212,4.01485 L129.716212,4.01485 L129.716212,5.4796 C129.819463,4.8671 130.943838,3.214225 133.095462,3.214225 Z M110.928212,4.4982 C109.517713,4.4982 107.857837,5.53595 107.857837,8.00695 C107.857837,10.43245 109.517713,11.5122 110.928212,11.5122 C112.394713,11.5122 114.086088,10.3957 114.086088,8.00695 C114.086088,5.6462 112.394713,4.4982 110.928212,4.4982 Z M82.3967375,4.523575 C80.8978625,4.523575 79.1846125,5.69695 79.1846125,8.0262 C79.1846125,10.34145 80.8978625,11.5122 82.3967375,11.5122 C83.9139875,11.5122 85.6149875,10.34145 85.6149875,8.0262 C85.6149875,5.69695 83.9139875,4.523575 82.3967375,4.523575 Z M4.65675,4.4982 C3.199,4.4982 1.491875,5.6462 1.491875,8.00695 C1.491875,10.3957 3.199,11.5122 4.65675,11.5122 C6.066375,11.5122 7.72975,10.43245 7.72975,8.00695 C7.72975,5.53595 6.066375,4.4982 4.65675,4.4982 Z M121.5564,4.4982 C120.0864,4.4982 118.389775,5.6462 118.389775,8.00695 C118.389775,10.3957 120.0864,11.5122 121.5564,11.5122 C122.95815,11.5122 124.62415,10.43245 124.62415,8.00695 C124.62415,5.53595 122.95815,4.4982 121.5564,4.4982 Z M33.0241625,5.2266375 C31.8315375,5.2266375 30.5872875,6.1637625 30.5872875,8.0065125 C30.5872875,9.8685125 31.8315375,10.7828875 33.0241625,10.7828875 C34.0356625,10.7828875 35.3744125,10.0452625 35.3744125,8.0065125 C35.3744125,5.9660125 34.0356625,5.2266375 33.0241625,5.2266375 Z M22.573775,2.134825 L20.479025,2.134825 L20.479025,6.15195 L22.573775,6.15195 C23.9344,6.15195 24.94065,5.6602 24.94065,4.16045 C24.94065,2.677325 23.9344,2.134825 22.573775,2.134825 L22.573775,2.134825 Z" id="Combined-Shape"></path>
                        </g>
                    </g>
                </g>
            </g>
        </g>
    </g>
</svg>